<svg width="62" height="86" viewBox="0 0 62 86" fill="none" xmlns="http://www.w3.org/2000/svg">
<path d="M6.25897 18.9181C5.97037 20.7128 5.82607 22.333 5.82607 23.7786C5.82607 27.0687 6.34555 29.7108 7.38451 31.7048C8.42348 33.6987 9.88091 34.6958 11.7568 34.6958C13.5173 34.6958 14.917 33.7984 15.956 32.0038C17.0238 30.1594 17.5577 27.7666 17.5577 24.8254C17.5577 21.5353 16.9372 18.9431 15.6962 17.0488C14.5127 15.2422 13.001 14.5237 11.1612 14.8935C11.0236 14.9212 10.891 14.8187 10.891 14.6784C10.891 14.6635 10.8925 14.6487 10.8956 14.6341C11.3604 12.4476 12.5133 10.2117 14.3542 7.92619C16.2301 5.63308 18.4235 4.48652 20.9343 4.48652C24.3398 4.48652 26.8794 6.48053 28.5534 10.4686C32.8033 20.594 31.7039 32.3508 28.9995 42.9937C28.1755 46.2366 27.2291 49.2879 26.3455 51.5C23.7491 58.0001 21.2374 64.6704 20.4581 66.814C19.6789 68.9574 16.259 74.5 13.6615 78.6318L8.59661 80.4264H5.82604C-1.17396 80.4264 -2.67395 81.917 5.82604 84.5391C7.93568 85.1899 13.464 83.4198 15.5098 82.5898C16.0238 82.3813 16.5248 82.1569 16.9949 81.917C20.3282 80.2154 25.3066 73.504 27.904 69.3663C30.5013 65.2288 39.826 53.5 42.826 26.6947C42.826 18.2702 43.1449 11.2662 39.826 6.58023C36.5072 1.89432 29.2749 0 23.6183 0C20.9054 0 18.4524 0.648049 16.259 1.94416C14.0945 3.19041 12.3773 4.73578 11.1075 6.58023C9.86647 8.4247 8.82751 10.4935 7.99057 12.7866C7.15363 15.0298 6.57644 17.0736 6.25897 18.9181Z" fill="black"/>
<circle cx="54.5" cy="25.5" r="7.5" fill="black"/>
<circle cx="54.5" cy="50.5" r="7.5" fill="black"/>
</svg>
