<svg width="81" height="104" viewBox="0 0 81 104" fill="none" xmlns="http://www.w3.org/2000/svg">
<rect y="2" width="13" height="100" rx="3" fill="black"/>
<g filter="url(#filter0_f_1_31)">
<rect x="6" y="2" width="13" height="100" rx="3" fill="black" fill-opacity="0.25"/>
</g>
<circle cx="17.7647" cy="52.3412" r="4.76471" fill="black"/>
<path d="M19.0353 39C22.9409 43.0279 21.0334 48.3737 19.0353 48.2118C17.0371 48.0498 15.1042 48.1547 13.9529 49.8C13.2486 51.4137 13.1816 52.3757 13.9529 54.2471C15.4442 56.3878 16.5849 56.9558 19.0353 57.1059C23.338 59.1667 22.6631 61.3357 19.0353 66L29.8353 59.3294H24.1176V45.9882H29.8353L19.0353 39Z" fill="black" stroke="black"/>
<rect y="22" width="18" height="5" fill="black"/>
<rect y="79" width="18" height="5" fill="black"/>
<path d="M21.5615 17.3654C21.1872 18.9179 21 20.3195 21 21.5701C21 24.4162 21.6738 26.7017 23.0215 28.4267C24.3692 30.1516 26.2597 31.0141 28.693 31.0141C30.9765 31.0141 32.7921 30.2378 34.1398 28.6853C35.5249 27.0899 36.2175 25.0199 36.2175 22.4756C36.2175 19.6294 35.4126 17.3871 33.8029 15.7483C32.1931 14.1096 30.1155 13.5059 27.5699 13.9371V13.6784C28.1689 11.7809 29.6663 9.84035 32.0621 7.85667C34.4954 5.87298 37.3405 4.88113 40.5974 4.88113C45.0147 4.88113 48.309 6.60609 50.4803 10.056C52.6516 13.5059 53.7372 18.1849 53.7372 24.0927C53.7372 26.7664 53.4939 29.2245 53.0072 31.4669C52.5579 33.6661 51.828 35.693 50.8172 37.5474C49.8064 39.4016 48.3652 43.8117 46.4934 44.8898C44.6591 45.9249 42.4691 46.4423 39.9235 46.4423H36.3297V50H40.1481C43.1304 49.8258 44.7681 49.3314 47.6165 47.6066V47.4772C54.4672 46.5717 59.5771 41.3854 62.9462 37.806C66.3154 34.2268 68 29.6557 68 24.0927C68 16.8049 65.8474 11.1341 61.5424 7.08044C57.2374 3.02682 51.4162 1 44.0789 1C40.5599 1 37.378 1.5606 34.5329 2.68182C31.7252 3.75991 29.4978 5.09676 27.8507 6.69233C26.2409 8.28791 24.8933 10.0775 23.8076 12.0612C22.722 14.0018 21.9733 15.7698 21.5615 17.3654Z" fill="black"/>
<path d="M23.5376 85.9686C23.1792 84.4478 23 83.0748 23 81.8497C23 79.0616 23.6452 76.8228 24.9355 75.133C26.2258 73.4434 28.0358 72.5984 30.3656 72.5984C32.552 72.5984 34.2903 73.3589 35.5807 74.8797C36.9069 76.4426 37.5699 78.4703 37.5699 80.9627C37.5699 83.7508 36.7993 85.9474 35.2581 87.5527C33.7168 89.1579 31.7276 89.7493 29.2903 89.3269V89.5804C29.8638 91.4391 31.2975 93.3401 33.5914 95.2833C35.9211 97.2265 38.6452 98.1981 41.7635 98.1981C45.9928 98.1981 49.1469 96.5083 51.2258 93.1288C53.3047 89.7493 54.3441 85.1659 54.3441 79.3786C54.3441 76.7595 54.1112 74.3515 53.6452 72.1549C53.215 70.0005 52.5162 68.015 51.5483 66.1985C50.5806 64.3821 49.2007 60.062 47.4085 59.0059C45.6523 57.992 43.5555 57.4851 41.1182 57.4851H37.6774V54H41.3333C44.1887 54.1707 45.7567 54.6549 48.4839 56.3446V56.4713C55.043 57.3584 59.9355 62.4388 63.1613 65.9451C66.387 69.4513 68 73.9291 68 79.3786C68 86.5177 65.939 92.0727 61.8172 96.0437C57.6954 100.015 52.1219 102 45.0968 102C41.7276 102 38.6811 101.451 35.957 100.353C33.2688 99.2964 31.1362 97.9869 29.5591 96.4238C28.0179 94.8608 26.7276 93.1077 25.6882 91.1645C24.6487 89.2635 23.9319 87.5316 23.5376 85.9686Z" fill="black"/>
<defs>
<filter id="filter0_f_1_31" x="4" y="0" width="17" height="104" filterUnits="userSpaceOnUse" color-interpolation-filters="sRGB">
<feFlood flood-opacity="0" result="BackgroundImageFix"/>
<feBlend mode="normal" in="SourceGraphic" in2="BackgroundImageFix" result="shape"/>
<feGaussianBlur stdDeviation="1" result="effect1_foregroundBlur_1_31"/>
</filter>
</defs>
</svg>
